<svg width="121" height="114" viewBox="0 0 121 114" fill="none" xmlns="http://www.w3.org/2000/svg">
<path d="M23.5282 38.7921H97.4718V25.3329H23.5282V38.7921ZM23.5282 104.5C21.2594 104.5 19.2915 103.715 17.6244 102.145C15.9581 100.575 15.125 98.7204 15.125 96.5829V25.3329C15.125 23.1954 15.9581 21.3417 17.6244 19.7719C19.2915 18.202 21.2594 17.4171 23.5282 17.4171H30.6697V9.5H39.4926V17.4171H81.5074V9.5H90.3303V17.4171H97.4718C99.7406 17.4171 101.708 18.202 103.376 19.7719C105.042 21.3417 105.875 23.1954 105.875 25.3329V58.6233C104.549 58.0011 103.188 57.4825 101.793 57.0677C100.397 56.6529 98.9566 56.3267 97.4718 56.0892V46.7079H23.5282V96.5829H60.9197C61.4525 98.061 62.0759 99.4464 62.7902 100.739C63.5044 102.033 64.3514 103.286 65.3312 104.5H23.5282ZM91.6739 109.25C84.9559 109.25 79.229 107.019 74.4932 102.558C69.7582 98.0966 67.3907 92.7006 67.3907 86.3704C67.3907 80.0411 69.7582 74.6455 74.4932 70.1836C79.229 65.7226 84.9559 63.4921 91.6739 63.4921C98.3928 63.4921 104.12 65.7226 108.856 70.1836C113.591 74.6455 115.958 80.0411 115.958 86.3704C115.958 92.7006 113.591 98.0966 108.856 102.558C104.12 107.019 98.3928 109.25 91.6739 109.25ZM99.3839 98.1267L102.892 94.8017L93.4385 85.8954V72.5954H88.4813V87.6375L99.3839 98.1267Z" fill="#0D2B4D"/>
</svg>
