<svg width="107" height="107" viewBox="0 0 107 107" fill="none" xmlns="http://www.w3.org/2000/svg">
<path d="M65.9837 73.3395L50.1566 57.5125V35.6666H56.8441V54.726L70.6649 68.5468L65.9837 73.3395ZM50.1566 25.6354V15.6041H56.8441V25.6354H50.1566ZM81.3649 56.8437V50.1562H91.3962V56.8437H81.3649ZM50.1566 91.3958V81.3645H56.8441V91.3958H50.1566ZM15.6045 56.8437V50.1562H25.6357V56.8437H15.6045ZM53.5304 98.0833C47.3824 98.0833 41.6051 96.913 36.1986 94.5724C30.7914 92.2317 26.063 89.0366 22.0133 84.9869C17.9637 80.9373 14.7686 76.2063 12.4279 70.7938C10.0873 65.3814 8.91699 59.5982 8.91699 53.4442C8.91699 47.2902 10.0873 41.507 12.4279 36.0946C14.7686 30.6822 17.9637 25.9698 22.0133 21.9573C26.063 17.9448 30.794 14.7682 36.2064 12.4276C41.6189 10.0869 47.4021 8.91663 53.5561 8.91663C59.71 8.91663 65.4932 10.0869 70.9057 12.4276C76.3181 14.7682 81.0305 17.9448 85.043 21.9573C89.0555 25.9698 92.2321 30.6882 94.5727 36.1125C96.9133 41.5368 98.0837 47.3226 98.0837 53.4699C98.0837 59.6179 96.9133 65.3952 94.5727 70.8016C92.2321 76.2088 89.0555 80.9306 85.043 84.9669C81.0305 89.0024 76.3121 92.1975 70.8878 94.5523C65.4635 96.9063 59.6777 98.0833 53.5304 98.0833ZM53.5561 91.3958C64.0703 91.3958 73.0055 87.6991 80.3618 80.3057C87.718 72.9123 91.3962 63.9585 91.3962 53.4442C91.3962 42.93 87.7251 33.9948 80.383 26.6385C73.0408 19.2823 64.0799 15.6041 53.5003 15.6041C43.0232 15.6041 34.088 19.2752 26.6946 26.6173C19.3012 33.9595 15.6045 42.9203 15.6045 53.5C15.6045 63.977 19.3012 72.9123 26.6946 80.3057C34.088 87.6991 43.0418 91.3958 53.5561 91.3958Z" fill="#0D2B4D"/>
</svg>
