<svg width="107" height="107" viewBox="0 0 107 107" fill="none" xmlns="http://www.w3.org/2000/svg">
<path d="M72.7823 83.8167L62.974 93.625L53.5 84.151L63.3083 74.3427C63.0111 73.5253 62.7882 72.6708 62.6396 71.7792C62.491 70.8875 62.4167 69.9958 62.4167 69.1042C62.4167 64.7944 63.9399 61.1163 66.9865 58.0698C70.033 55.0233 73.7111 53.5 78.0208 53.5C79.3583 53.5 80.6587 53.6672 81.9219 54.0016C83.1851 54.3359 84.374 54.8003 85.4885 55.3948L74.9 65.9833L81.1417 72.225L91.7302 61.7479C92.3247 62.8625 92.7891 64.0328 93.1234 65.2589C93.4578 66.4849 93.625 67.7667 93.625 69.1042C93.625 73.4139 92.1017 77.092 89.0552 80.1385C86.0087 83.1851 82.3306 84.7083 78.0208 84.7083C77.0549 84.7083 76.1446 84.634 75.2901 84.4854C74.4356 84.3368 73.5997 84.1139 72.7823 83.8167ZM93.0677 46.8125H86.1573C84.4483 39.2333 80.5844 32.8802 74.5656 27.7531C68.5469 22.626 61.525 20.0625 53.5 20.0625C44.2118 20.0625 36.3168 23.3134 29.8151 29.8151C23.3134 36.3168 20.0625 44.2118 20.0625 53.5C20.0625 59.5187 21.4929 64.9988 24.3536 69.9401C27.2144 74.8814 30.9854 78.8382 35.6667 81.8104V69.1042H42.3542V93.625H17.8333V86.9375H31.3198C25.8955 83.3708 21.5486 78.6524 18.2792 72.7823C15.0097 66.9122 13.375 60.4847 13.375 53.5C13.375 47.9271 14.4339 42.7071 16.5516 37.8401C18.6693 32.9731 21.53 28.7377 25.1339 25.1339C28.7377 21.53 32.9731 18.6693 37.8401 16.5516C42.7071 14.4339 47.9271 13.375 53.5 13.375C63.4569 13.375 72.1321 16.5701 79.5255 22.9604C86.9189 29.3507 91.433 37.3014 93.0677 46.8125Z" fill="#0D2B4D"/>
</svg>
