<svg width="220" height="220" viewBox="0 0 220 220" fill="none" xmlns="http://www.w3.org/2000/svg">
<path d="M163.9 160.3C166 160.3 167.4 161.5 167.5 163C167.5 164.1 166.6 165 165.5 165C163.1 165 163.7 163.2 162.7 163.2C160.46 163.2 158.701 166.643 157.025 170.329L156.767 170.897L156.383 171.752L156 172.6C155.1 174.4 154.7 174.7 154 174.7C152.3 174.7 152 170.2 151.3 168.2C149.9 171.2 147.1 174.7 142.7 174.7C140.1 174.6 137.6 173.3 137.6 169.3C137.6 164.8 140.6 161.6 143.6 161.6C145.9 161.6 147.4 164 147.4 165.6C147.3 170 141.4 170.1 141.4 171C141.4 171.9 142.9 172.2 143.8 172.2C147.6 172.2 150.1 167.3 151 163.9C151.2 163.3 151.7 162.1 152.8 162.1C154 162.1 153.4 169.5 155.1 169.5C156.2 169.5 157.6 160.3 163.9 160.3ZM104.7 150.2C106.7 150.1 108.3 152 108.5 155C108.9 163 106.2 166.2 104.8 169.1C105.1 170.2 107 172.1 108.8 172.1C109.5 172.1 110.3 171.8 110.5 171.5C110.3 171 110.2 170.5 110.2 169.6C110.2 165 113.3 161.2 115.9 161.2C118 161.2 119.2 163.9 119.2 165.7C119.2 167.8 117.4 169.5 114.7 171.1C115.2 171.6 116.1 171.9 116.8 171.9C120.6 172 122.7 167.4 124.2 163.3C124.5 162.5 125 161.4 125.9 161.4C127.5 161.4 128.1 171.8 130.8 171.8C131.9 171.8 132.9 169.5 132.9 167.7C133 166.3 132.5 166.2 132.5 164.3C132.5 162.2 133.6 160.4 135.2 160.4C136.2 160.4 136.5 161.3 136.5 162.4C136.4 166.6 133.3 174.4 128.7 174.4C125.3 174.4 125.6 168.6 124.4 168.6C123.1 168.6 121.2 174.4 114.5 174.4C113.4 174.4 112.2 173.9 111.3 172.8C109.7 173.9 108.3 174.3 106.8 174.3C104.3 174.3 103.2 171.8 102.2 171.8C101 171.8 99.6 174.3 95.6 174.3C92.4 174.3 91.8 170.1 90.7 170.1C89.7 170.1 88.1 174.3 86.4 174.3C85.034 174.3 84.192 172.563 83.397 170.784L83.16 170.25C82.409 168.568 81.659 167 80.5 167C79.591 167 77.7 168.693 75.786 170.437L75.264 170.913C73.355 172.653 71.513 174.296 70.7 174.2C70 174.1 69.7 173.7 69.8 173C69.9 172.1 70.8 169.6 71.1 168.5C71.7 166.5 72.2 164.3 72.5 163.6C72.7 162.9 73.5 162.4 74.1 162.5C74.4 162.5 74.5 163 74.6 163.5C74.9 165.1 75.4 166.8 75.9 166.8C76.8 166.8 80 161 81.8 161C84.1 161 84.3 170.2 87.3 170.2C88.3 170.2 89 169 89.7 167.6C89.8 165.2 90.5 161.7 92.5 161.7C93.9 161.7 94.5 164.8 93.5 167.5C93.4 170.7 95.6 171.5 97 171.5C98 171.5 99.7 171.2 101.1 169.1C100.3 167.4 99.8 163.9 99.7 162.7C99.4 156.3 101.9 150.3 104.7 150.2ZM66.2 152.2C67.4 151.8 67.9 152.4 68.4 153.8C69 155.9 69 158.7 68.8 162.6C68.5 168 65.7 174.5 58.8 174.3C52.8 174.2 50.2 170.4 50 164.7C49.9 162 50.1 159.3 51.3 155.5C52 153.5 52.5 152.8 54.4 152.4C55.9 152.1 55.7 153.6 55.4 155.4C54.6 159.3 54.3 161.2 54.5 165.7C54.8 170.4 57 172.3 59.4 172.3C63.1 172.4 64.7 169.5 65.4 165.2C65.9 161.8 65.5 160.2 65.2 159.1C65 158.5 64.4 157.2 64.3 156.2C63.9 154 65.1 152.5 66.2 152.2ZM114.9 164.3C114.3 164.2 112.9 164.9 112.9 167C112.9 168.7 113.5 169.5 113.8 169.8C115.8 169.2 116.3 167.6 116.2 166.3C116.2 165.2 115.6 164.3 114.9 164.3ZM142.7 164.2C140.1 164.2 140.3 168.3 140.7 169.2C142.6 168.9 143.9 167.8 144.2 166.8C144.5 165.8 144.1 164.2 142.7 164.2ZM104.922 154.093L104.8 154.1C103.5 154.2 102.9 158.3 103.1 162.6C103.3 165.4 103.7 165.8 104.1 165.8C104.8 165.8 106.6 160.7 106.4 156.7C106.3 154.9 105.8 154 104.8 154.1L104.922 154.093ZM93.3 151C94.5 151 95.3 151.7 95.4 152.8C95.6 154.3 94.5 155.9 93 155.9C91.7 155.9 91.1 155 90.9 153.9C90.8 152.3 92 151 93.3 151Z" fill="black"/>
<path fill-rule="evenodd" clip-rule="evenodd" d="M118.7 129.2C118.3 128.5 118.6 127.3 117.5 127.3C116.8 127.3 116.7 127.9 116.6 128.4C115.1 127.9 113.8 127.7 112.6 127.7C111.8 127.7 111.1 127.8 110.4 128C110 127.3 108.2 125.9 106.7 125.4C106.1 128.7 103.2 131.2 98.8996 131.6C98.6996 133.7 96.9996 134.3 95.6996 134.3C94.7996 134.3 93.2996 134 93.1996 133.6C92.6996 130.5 90.3996 128.8 89.2996 128.4C89.2996 128.7 89.3996 129.1 89.3996 129.4C89.3996 132 87.5996 133.6 84.2996 133.6C83.7996 133.6 83.0996 133.6 82.5996 133.5C86.3996 137.7 89.0996 136.2 90.7996 137C93.0996 138 94.9996 141.3 102.4 141.3C105.1 141.3 107.8 140.2 109.6 139.1C109.9 140.2 111 141.2 112.9 141.2C116 141.2 117.8 140.2 117.8 139.4C117.8 139.2 117.8 138.9 117.2 138.9C116.7 138.9 116.7 139 115 139C113 139 109.8 138.2 108.3 134.7C108 134.1 107.6 134.1 107.5 134.1C106.5 134.1 104.9 137.7 98.5996 137.7C95.8996 137.7 94.6996 136.7 94.6996 136.5C94.6996 136.5 94.6996 136.4 94.7996 136.4C95.0996 136.4 95.9996 136.5 97.1996 136.5C101.2 136.5 104.4 134.6 106.4 132.5C107.1 131.7 107.4 131.6 108 131.6C108.5 131.6 109 132 109.3 132.7C110.2 135 112.3 136.9 114.5 136.9C117.5 136.9 117.6 131.7 118.3 131.4C118.4 131.4 118.6 131.5 118.7 131.5C119.1 131.5 119.6 131.2 119.6 130.6C119.7 129.8 118.8 129.6 118.7 129.2ZM113.7 133.1C112.9 133.1 112.3 132.5 112.3 131.7C112.3 130.9 112.9 130.2 113.7 130.2C114.5 130.2 115.1 130.9 115.1 131.6C115.2 132.5 114.5 133.1 113.7 133.1Z" fill="black"/>
<path fill-rule="evenodd" clip-rule="evenodd" d="M103.3 119.2C104 119.2 104.3 119.8 104.4 120.4C104.6 120.2 104.9 120.1 105.2 120.1C105.9 120.1 106.3 120.6 106.3 121.2C106.3 121.6 106.1 121.9 105.8 122.1C106.2 122.3 106.5 122.6 106.5 123C106.5 123.5 106.1 123.9 105.5 123.9C105 123.9 104.6 123.3 104.1 123.3C103.8 123.3 103.4 123.4 103.3 123.6C103.5 124.1 103.6 124.5 103.6 125C103.6 127.6 100.1 129.7 96.4004 129.7C92.8004 129.7 91.4004 127.6 91.4004 126.7C91.4004 126.5 91.5004 126.4 91.8004 126.4C92.4004 126.4 92.5004 126.6 94.2004 126.6C98.1004 126.6 96.7004 121.6 100.4 121.6C100.9 121.6 102 121.9 102.4 122.6C102.7 122.3 102.8 121.9 102.8 121.6C102.8 121 102.4 120.6 102.4 120.1C102.4 119.6 102.8 119.3 103.3 119.2Z" fill="black"/>
<path fill-rule="evenodd" clip-rule="evenodd" d="M80.1002 116.6C84.5002 116.6 87.9002 120.3 87.9002 125.6C87.9002 128 86.6002 131.5 81.3002 131.5C75.0002 131.5 71.2002 126.2 71.2002 122.8C71.2002 119.9 73.1002 118.1 74.3002 117.8C73.0002 123 75.9002 128 81.7002 128C84.6002 128 86.0002 126.6 86.0002 124.1C86.0002 121.3 84.1002 118.6 80.8002 118.6C79.2002 118.6 78.0002 119.5 78.0002 120.8C78.0002 122.9 79.8002 124.2 81.7002 124.2C82.9002 124.2 83.7002 123.7 83.7002 122.9C83.7002 122.8 83.7002 122.6 83.6002 122.5C83.5002 122.6 83.2002 122.6 82.8002 122.6C81.3002 122.6 80.1002 121.8 80.1002 120.9C80.1002 120.2 80.6002 119.8 81.2002 119.8C83.4002 119.8 84.9002 122 84.9002 123.6C84.9002 125.2 83.7002 126.6 81.7002 126.6C77.4002 126.6 75.5002 123.1 75.5002 120.8C75.6002 118.3 77.7002 116.6 80.1002 116.6Z" fill="black"/>
<path fill-rule="evenodd" clip-rule="evenodd" d="M132.8 128.4C131.9 129.1 129.7 130.7 126 130.7C124 130.7 123.2 130.1 122.9 130.1C122.5 130.1 122.1 130.5 121.7 130.9C120.8 131.9 119.7 133.7 119.7 135.8C119.7 137.2 120.8 138.6 122.9 138.6C129.7 138.6 134.7 134.4 134.7 131.1C134.8 129.2 133.6 128.4 132.8 128.4ZM129.3 134.9L125.4 136C125.7 135.2 125.9 134.3 125.9 133.4C125.9 133.1 125.9 132.9 125.8 132.6H126.3C129.2 132.6 130.4 131.5 130.6 131.5C130.8 131.5 131 131.6 131 132.2C131 133 130.6 134.1 129.3 134.9Z" fill="black"/>
<path fill-rule="evenodd" clip-rule="evenodd" d="M127 129.2C128.6 129.2 130 128.8 130.9 128C131.2 127.8 131.3 127.4 131.3 127V126.2C131.3 125.2 129.7 124.6 127.5 124.6C124.9 124.6 123.5 125.8 123.5 126.3V127.9C123.5 128.5 125 129.2 127 129.2Z" fill="black"/>
<path fill-rule="evenodd" clip-rule="evenodd" d="M139.2 112.2C133.9 112.2 135.3 116.7 129.1 118.1C128 118.3 127.6 118.7 127.6 119.2C127.6 120.1 128.1 121.3 128.8 121.3C131.5 121.3 135.6 115.8 136.4 115.8C136.7 115.8 137 115.8 137 116.6C137 118.6 131.2 121.2 131.2 122.6C131.2 123.4 133.2 125.2 135.3 125.2C138.2 125.2 140.8 119.4 141.4 119.4C141.9 119.4 142 119.7 142 120.1C142 121.7 140 124.8 136.6 126.1C135.9 126.4 135.8 126.7 135.8 126.9C135.8 127.7 136.7 128.8 137.5 128.8C138.5 128.8 145.2 123 145.2 118.4C145.4 114.1 142.1 112.2 139.2 112.2ZM141.6 117.2C141.2 117.2 140.8 117.1 140.6 116.9C140.1 116.7 139.3 116 139.3 115C139.3 114 139.8 113.7 140.3 113.7C141.8 113.7 143.5 115 143.5 116.1C143.5 117 142.7 117.2 141.6 117.2Z" fill="black"/>
<path fill-rule="evenodd" clip-rule="evenodd" d="M91.6 119.6H90.7C90.4 119.6 89.9 119.5 89.6 119.3C89 118.8 88.8 116.1 87.8 114.5C86.6 112.7 85.3 112.2 83.6 112.2C82.4 112.2 81 112.9 81 113.9C81 114.5 81.3 114.9 83.6 115.5C86.5 116.2 87.9 117.8 88.2 119.6C88.5 121.4 88.8 122.8 89.5 123.5C90.4 124.5 92.1 125.4 93.7 125.4C95 125.4 96 125 96 123.8C95.9 122.5 94.1 119.6 91.6 119.6ZM93.5 123.5C92.4 123.5 90.8 122.4 90.8 121.7C90.8 121.2 91.3 120.9 91.7 120.9C92.6 120.9 94.2 122 94.2 122.9C94.2 123.2 94 123.5 93.5 123.5Z" fill="black"/>
<path fill-rule="evenodd" clip-rule="evenodd" d="M113.4 115.9C112.7 115.9 112.7 117 112.7 117.4C112.7 117.8 112.7 117.9 112.4 117.9C112.1 117.9 111.9 117.8 111.6 117.8C111.4 117.8 111.2 118 111.2 118.3C111.2 119.8 113.1 121 115 121C117.5 121 118.7 119.9 119.4 119.9C119.7 119.9 119.8 120.2 119.8 120.4C119.8 120.8 119.4 121.3 119.4 121.5C119.4 122.1 120.6 121.6 120.6 122.3C120.6 123.2 119.1 123.9 116.8 123.9C112.3 123.9 109.4 120.8 109.4 117.9C109.4 112.5 115.2 114.2 115.2 112.1C115.2 111.4 114.5 111 114 111C114.6 110.2 115.4 110.1 116.2 110.1C116.8 110.1 117.4 110.2 117.9 110.2C118.6 110.2 119.3 109.9 119.3 109.1C119.3 108.6 118.9 108 117.2 107.8C117.4 106.7 119.7 107.3 119.7 106.3C119.7 105.6 118.4 105.1 116.8 105.1C110.6 105.1 106.2 110.2 106.2 115.7C106.2 120.7 109.8 126.2 116.5 126.2C123 126.2 126.1 120.9 126.1 116.9C124.9 118 121.7 118.3 120.1 118.3C115.4 118.4 114.1 115.9 113.4 115.9Z" fill="black"/>
<path fill-rule="evenodd" clip-rule="evenodd" d="M118.5 116.6C119.5 116.6 120.2 115.8 120.2 114.9C120.2 113.5 118.8 112.2 116.7 112.2C117.1 112.6 117.2 112.9 117.2 113.3C117.2 113.8 116.9 114.4 116.9 115C116.9 115.9 117.5 116.6 118.5 116.6ZM128.6 109.8C128.9 110.2 129 110.6 129 111C129 112 128.3 113 128.3 114C128.3 115.2 129.2 116.2 130.6 116.2C132.1 116.2 133.1 115 133.1 113.6C133 111.6 131.3 110 128.6 109.8ZM121.4 106C121.9 106.6 122.1 107.2 122.1 107.9C122.1 109.5 120.9 111.1 120.9 112.6C120.9 114.6 122.2 115.9 124.1 115.9C126.1 115.9 127.3 114.2 127.3 112.3C127.3 109.6 125.2 106.7 121.4 106ZM124.2 111.7C123.7 111.7 123.3 111.3 123.3 110.8C123.3 110.5 123.5 110.1 123.5 109.7C123.6 109.2 123.5 108.8 123.8 108.8C124.4 108.8 125.1 109.9 125.1 110.6C125.1 111.2 124.8 111.7 124.2 111.7Z" fill="black"/>
<path fill-rule="evenodd" clip-rule="evenodd" d="M101.1 107.4C99.5002 106.8 98.8002 105.9 98.4002 104C97.6002 105.1 97.2002 106.1 97.2002 106.7C97.2002 109.1 100.5 109.1 100.5 110.7C100.5 111.6 98.8002 112.6 96.6002 112.6C94.1002 112.6 92.3002 112.2 90.7002 110.6C90.3002 110.2 90.1002 109.8 89.6002 109.8C89.0002 109.8 88.7002 110.8 88.7002 111.8C88.7002 115.2 92.0002 119.3 96.6002 119.3C102.3 119.3 104.6 115.4 104.6 112.2C104.7 110.3 104.3 108.6 101.1 107.4ZM99.5002 117C99.0002 117 98.9002 116.8 98.9002 116.3C98.9002 116 99.0002 115.4 99.0002 114.9C99.0002 113.7 99.5002 113.8 100.7 113.2C101.6 112.8 101.9 112.3 102.2 112.3C102.5 112.3 102.8 112.5 102.8 113C102.8 114.8 100.8 117 99.5002 117Z" fill="black"/>
<path fill-rule="evenodd" clip-rule="evenodd" d="M93.7998 101.6C93.1998 101.6 92.1998 101 91.1998 100.2C90.0998 101.3 89.2998 102.8 89.2998 104.5C89.2998 108 92.9998 110.9 96.5998 110.9C97.1998 110.9 97.7998 110.8 98.3998 110.7C96.3998 110.5 95.1998 109 95.1998 107.2C95.1998 104.9 97.7998 102.8 97.7998 101C97.7998 98.8 95.0998 98.6 95.0998 96.8C95.0998 95.3 97.6998 94.2 97.5998 91.8C97.5998 90.4 96.1998 88.7 94.2998 87.7C94.5998 88.3 94.7998 89.1 94.7998 89.6C94.7998 92.4 89.3998 93.6 89.3998 95.8C89.3998 98.6 94.5998 99.7 94.5998 101C94.5998 101.3 94.3998 101.6 93.7998 101.6Z" fill="black"/>
<path fill-rule="evenodd" clip-rule="evenodd" d="M148.3 103.4C150.1 103.4 151.5 105.7 151.5 108.4C151.5 111.3 150.1 114.4 147.7 116.6C147.7 111.8 141.8 113.3 141.8 109.8C141.8 108.3 142.9 107.3 144.2 107.3C145.3 107.3 146.2 107.6 146.9 108.3C146.3 107.7 145.9 106.8 145.9 106C145.9 104.7 146.7 103.4 148.3 103.4Z" fill="black"/>
<path fill-rule="evenodd" clip-rule="evenodd" d="M77.4996 108.3C76.9996 108.4 76.5996 108.5 76.2996 108.8C75.9996 107.7 74.9996 106.7 73.5996 107C72.3996 107.2 71.4996 108.3 71.6996 109.7C71.6996 109.9 71.7996 110.2 71.8996 110.4C71.8996 110.4 71.6996 110.4 71.4996 110.5C70.4996 110.7 69.2996 111.7 69.4996 113.2C69.6996 114.5 70.7996 115.4 72.0996 115.3C72.5996 115.2 72.9996 115.1 73.2996 114.9C73.5996 116.1 74.5996 116.8 75.8996 116.7C77.1996 116.5 78.0996 115.4 77.9996 114.1C77.9996 113.7 77.8996 113.5 77.7996 113.3H78.0996C79.3996 113 80.2996 112 80.1996 110.7C79.7996 109.1 78.6996 108.1 77.4996 108.3ZM74.8996 113.2C74.0996 113.3 73.4996 112.7 73.3996 112C73.2996 111.2 73.7996 110.5 74.5996 110.4C75.3996 110.3 75.9996 110.9 76.0996 111.6C76.1996 112.4 75.6996 113.1 74.8996 113.2Z" fill="black"/>
<path fill-rule="evenodd" clip-rule="evenodd" d="M142.301 102.3C142.301 101.8 143.501 100.6 143.501 100.2C143.501 100.1 143.401 100 143.301 100C142.801 100 141.101 101.3 138.601 101.3C137.601 101.3 136.901 101.2 136.901 100.4C136.901 99.7 137.501 99.1 138.501 98.7C139.601 98.2 141.801 98.2 141.801 97.7C141.801 97.3 139.701 97.3 139.701 96.9C139.701 96.4 140.501 95.2 140.501 94.7C140.501 94.7 140.501 94.5 140.401 94.5C140.001 94.5 139.001 95.7 138.401 95.7C137.801 95.7 137.301 94.2 136.801 94.2C136.701 94.2 136.501 94.3 136.501 94.6C136.501 95.2 136.801 96.3 136.801 97.8C136.801 99.1 136.101 100.2 135.401 100.2C134.501 100.2 134.201 99.1 134.201 98.2C134.201 96.9 134.901 95.4 134.901 94C134.901 93.7 134.801 93.6 134.601 93.6C134.101 93.6 133.301 95.1 132.701 95.1C132.301 95.1 131.601 93.3 131.001 93.3C130.901 93.3 130.801 93.6 130.801 94C130.801 94.5 130.901 95.2 130.901 95.5C130.901 95.9 130.401 96 129.801 96C129.401 96 128.601 96 128.601 96.3C128.601 96.6 129.401 96.9 130.101 97.4C131.401 98.3 133.501 99.2 133.501 101.3C133.501 103.2 130.801 104.5 128.901 104.9C128.001 105 127.101 105.2 127.101 105.5C127.101 105.9 129.501 106 129.501 106.5C129.501 106.8 128.401 108.2 128.401 108.6C128.401 108.7 128.501 108.7 128.501 108.7C128.901 108.7 130.101 107.7 130.601 107.7C131.301 107.7 131.201 109.8 131.701 109.8C132.301 109.8 132.101 106.7 132.301 105.9C132.701 104.5 133.701 103.1 134.601 103.1C135.701 103.1 135.801 105 135.801 105.9C135.801 107.7 134.501 109.6 134.501 110.5C134.501 110.6 134.601 110.7 134.701 110.7C135.101 110.7 136.001 109.5 136.501 109.5C137.001 109.5 138.101 111.5 138.501 111.5C138.701 111.5 138.801 111.3 138.801 111.1C138.801 110.5 138.501 109.5 138.501 108.9C138.501 108.2 140.801 108.6 140.801 108.1C140.801 107.9 139.801 107.5 139.201 107.1C137.901 106.3 136.401 104.6 136.401 103.2C136.401 102.7 136.701 102.3 137.101 102.3C139.901 102.3 141.101 106.6 141.601 106.6C142.101 106.6 141.801 104.7 142.001 104.4C142.101 104.3 142.401 104.2 142.701 104.2C143.201 104.2 143.801 104.3 144.201 104.3C144.501 104.3 144.601 104.3 144.601 104.2C144.501 103.6 142.301 102.9 142.301 102.3Z" fill="black"/>
<path fill-rule="evenodd" clip-rule="evenodd" d="M131.2 101.1C131.2 100.2 127.3 97.2 126.5 97.2C126.3 97.2 126.2 97.3 126.2 97.5C126.2 97.8 126.3 98.2 126.3 98.5C126.3 99.2 126 99.3 125.3 99.3C124.5 99.3 123.2 99 123.2 97.7C123.2 95.2 128 95.8 128.5 93.5C126.4 93.5 125.4 92.1 124 92.1C123.5 92.1 122.5 92.4 122.5 93.7C122.5 94.1 122.6 94.8 122.6 95.4C122.6 96 122.5 96.4 121.8 96.4C121.2 96.4 121.1 95.7 121.1 94.9C121.1 94.2 121.2 93.4 121.2 92.9C121.2 89.2 117.1 90.7 116.7 87.7C115.7 89.5 115.4 90.8 115.4 91.9C115.4 95.8 120.7 95.4 120.7 98.1C120.7 98.8 120.2 99.2 119.7 99.2C118.8 99.2 118.2 97.3 116.8 97.3C116.1 97.3 115.6 97.8 115.6 98.9C115.6 99.7 115.8 100.3 115.8 101.1C115.8 102.7 115.1 103.4 114.4 104.1C119.2 103.7 119.5 100.1 120.9 100.1C121.3 100.1 121.5 100.4 121.5 100.6C121.5 101.2 120.5 102.2 120.5 103.2C120.5 104.5 122 105.2 123 105.2C124.2 105.2 124.6 104.8 124.6 104C124.6 103.1 123 101.9 123 100.9C123 100.4 123.5 100.3 124.2 100.3C125.7 100.3 126.2 100.5 126.2 100.8C126.2 101.2 125.6 102 125.6 102.2C125.6 102.3 125.7 102.6 126 102.6C127.1 102.8 131.2 101.9 131.2 101.1Z" fill="black"/>
<path fill-rule="evenodd" clip-rule="evenodd" d="M80.7004 87.5999C80.0004 88.8999 79.8004 90.5999 79.8004 91.5999C79.8004 97.6999 87.1004 103.4 87.1004 107.2C87.1004 108.7 86.0004 110.5 84.0004 110.5C82.2004 110.5 81.2004 109.1 81.2004 107.9C81.2004 107 81.8004 106.2 82.1004 106.2C82.2004 106.2 82.2004 106.3 82.2004 106.5C82.2004 107 82.6004 107.7 83.4004 107.6C84.2004 107.6 84.6004 107.1 84.6004 106.4C84.6004 103.4 78.6004 98.1999 78.6004 91.0999C78.3004 91.8999 77.9004 92.8999 77.9004 94.3999C77.9004 97.7999 80.4004 101.4 80.4004 104.7C80.4004 106 79.4004 107.2 78.1004 107.2C76.6004 107.2 76.1004 106 76.1004 105.3C76.1004 104.8 76.3004 104.3 76.5004 104.3C76.7004 104.3 76.6004 105.1 77.4004 105.1C78.3004 105.1 78.6004 104.5 78.6004 103.4C78.6004 100.4 76.9004 98.2999 76.9004 95.1999C76.9004 94.6999 76.9004 94.1999 77.0004 93.7999C76.1004 94.8999 76.0004 96.4999 76.0004 97.8999V101.6C76.0004 104.1 74.8004 105.2 73.3004 105.2C72.3004 105.2 71.4004 104.4 71.4004 103.1C71.4004 102.9 71.5004 102.3 71.7004 102.3C72.0004 102.3 72.2004 103.1 73.0004 103.1C74.6004 103.1 74.7004 101.6 74.7004 98.4999C74.5004 94.6999 75.9004 90.5999 80.7004 87.5999Z" fill="black"/>
<path fill-rule="evenodd" clip-rule="evenodd" d="M70.8 85.7998C71.3 85.7998 71.5 86.2998 71.5 86.6998C71.5 88.3998 69.3 93.3998 69.3 94.7998C69.3 94.9998 69.4 95.1998 69.6 95.1998C70.5 95.1998 72.3 91.2998 72.9 89.3998C73.2 88.3998 73.7 87.8998 74.1 87.8998C74.5 87.8998 74.8 88.2998 74.8 89.0998C74.8 90.9998 73 95.5998 71.4 98.5998C70.2 101 68.2 104.4 68.2 106.3C68.2 107.3 68.4 108.3 69.8 109.5C67.5 109.4 66.5 109.1 65.6 107.4C61.7 115 72.8 114.3 69 121.1C68.3 119.9 62.8 118.6 62.8 111.5C62.8 105.4 68.3 101.8 68.3 99.1998C68.3 98.6998 68.1 98.2998 67.6 97.8998C66.4 96.8998 66.4 96.0998 65.4 96.0998C64.7 96.0998 63.9 97.6998 64.7 99.0998C65 99.5998 65.2 99.8998 65.2 100.3C65.2 101.3 63.6 104 62.5 104C61.4 104 60.5 101.2 60.5 96.7998C60.5 92.8998 61.4 88.8998 62.5 88.8998C62.8 88.8998 62.9 89.0998 62.9 89.3998C62.9 89.8998 62.8 90.7998 62.8 92.3998C62.8 94.0998 63.2 94.1998 63.5 94.1998C64.7 94.1998 64.5 86.6998 66.5 86.6998C67 86.6998 67.1 87.1998 67.1 87.6998C67.1 89.3998 66.3 91.8998 66.3 93.1998C66.3 93.8998 66.5 94.0998 66.8 94.0998C67.8 93.9998 69.3 85.7998 70.8 85.7998Z" fill="black"/>
<path fill-rule="evenodd" clip-rule="evenodd" d="M152.1 95.6C150.4 95.6 149.5 98.6 147.8 98.7C148.8 94.4 153.1 92.1 153.1 88.1C153.1 83.5 149.3 81.9 147.7 80.9C145.1 77.1 143.2 74.1 138.9 74.1C137.1 74.1 135.9 74.4 134.7 74.4C132.3 74.4 131.5 73.5 131.4 73.5C131.4 73.5 131.3 73.5 131.3 73.7C131.3 77.1 133.1 84.7 140.7 84.7C144.8 84.7 146.5 83.1 147.5 83.1C148.5 83.1 151.8 84.2 151.8 88.1C151.8 90.2 150.1 92.4 149.5 92.4C148.9 92.4 148.3 91.4 148.3 90.4C148.3 89.3 148.9 87.2 148.9 85.9C148.9 85.4 148.8 85.2 148.5 85.2C147.9 85.2 144.8 87.2 144.8 89.6C144.8 91.7 147.9 93 149.1 93.6C147.9 95.5 147.2 96.8 146.7 98.6C146.7 97.2 145.4 94.5 145 93.3C143.1 87.9 142.4 86.9 138.3 86.4C138.9 88.6 145.9 93.8 145.9 99.1C145.9 99.4 145.9 99.9 145.8 100.1C143.7 93.9 140.1 92.4 138.8 90.9C136.7 88.5 137.9 86.2 134.5 84.9C134.7 85.2 134.8 85.6 134.8 85.9C134.8 87.1 134.2 88.5 134.2 89.5C134.2 93.3 138.5 92.1 141.1 94.2C143.6 96.2 145 99.5 146 103.2C147 101.6 147.6 99.6 149.3 99.6C150.4 99.6 150.8 101 150.8 102.1V102.6C152.5 101.1 153.4 98.7 153.4 97.1C153.3 96.3 152.9 95.6 152.1 95.6ZM145.3 81.5C144.9 81.5 144.3 81.3 143.8 81.3C142.6 81.3 141.7 83 141.1 83C140.9 83 140.8 82.8 140.8 82.6C140.8 81.9 142 81.1 142 80.6C142 80.3 141.5 80.2 141.3 80.2C140.1 80.2 138.4 81.9 137.4 81.9C137.2 81.9 137 81.8 137 81.6C137 81.1 138.3 80.5 138.3 80C138.3 79.5 137.8 79.5 137.4 79.5C136.8 79.5 135.6 79.8 134.9 79.8C134.5 79.8 134.2 79.7 134.2 79.4C134.2 78.7 136.5 79.1 136.5 78.3C136.5 77.9 135.8 77.1 135.8 76.7C135.8 76.5 136 76.4 136.2 76.4C137 76.4 137.9 78.7 138.8 78.7C139.2 78.7 139.3 78.4 139.3 77.9C139.3 77.4 139.2 77.2 139.2 76.8C139.2 76.4 139.4 76.3 139.5 76.3C140.1 76.3 140.6 79.5 142.3 79.5C143 79.5 142.5 77.5 143.2 77.5C143.6 77.5 143.7 78.1 143.7 78.4C143.9 80.5 145.8 80.6 145.8 81.4C145.7 81.3 145.6 81.5 145.3 81.5Z" fill="black"/>
<path fill-rule="evenodd" clip-rule="evenodd" d="M121.4 76.8C122.2 76.8 122.8 77.4 122.8 78.1C122.8 78.8 122.2 79.4 121.4 79.4C120.7 79.4 120 78.8 120 78.1C120 77.4 120.7 76.8 121.4 76.8ZM130.6 89.4C129.9 89.4 129.2 90 129.2 90.7C129.2 91.5 129.9 92 130.6 92C131.4 92 132 91.4 132 90.6C132 89.9 131.4 89.4 130.6 89.4ZM126 86.9C124.6 86.9 123.5 88 123.5 89.3C123.5 90.6 124.6 91.7 126 91.7C127.4 91.7 128.5 90.6 128.5 89.3C128.5 88 127.4 86.9 126 86.9ZM121.6 85.8C120.8 85.8 120.2 86.4 120.2 87.2C120.2 88 120.9 88.6 121.6 88.6C122.4 88.6 123 88 123 87.2C123 86.4 122.4 85.8 121.6 85.8ZM130.4 88C131.3 88 132.1 87.3 132.1 86.4C132.1 85.5 131.3 84.8 130.4 84.8C129.5 84.8 128.7 85.5 128.7 86.4C128.7 87.2 129.5 88 130.4 88ZM117.4 82.9C116.3 82.9 115.3 83.8 115.3 84.9C115.3 86 116.2 86.9 117.4 86.9C118.5 86.9 119.5 86 119.5 84.9C119.4 83.8 118.5 82.9 117.4 82.9ZM124.9 84.4C124.9 85.2 125.5 85.8 126.3 85.8C127.1 85.8 127.7 85.2 127.7 84.4C127.7 83.6 127.1 83 126.3 83C125.5 83 124.9 83.7 124.9 84.4ZM122.1 84.8C123.3 84.8 124.3 83.9 124.3 82.7C124.3 81.5 123.3 80.6 122.1 80.6C120.9 80.6 119.9 81.5 119.9 82.7C119.9 83.8 120.8 84.8 122.1 84.8ZM130.1 83.4C130.9 83.4 131.6 82.7 131.6 81.9C131.6 81.1 130.9 80.4 130.1 80.5C129.3 80.5 128.6 81.2 128.6 82C128.6 82.8 129.3 83.4 130.1 83.4ZM118 81.4C118.8 81.4 119.4 80.8 119.4 80C119.4 79.2 118.8 78.6 118 78.6C117.2 78.6 116.6 79.2 116.6 80C116.5 80.8 117.2 81.4 118 81.4ZM126.2 81.3C127.5 81.3 128.5 80.3 128.5 79.1C128.5 77.9 127.5 76.9 126.2 76.9C124.9 76.9 123.9 77.9 123.9 79.1C123.9 80.3 124.9 81.3 126.2 81.3ZM127.9 76.1C128.7 76.1 129.3 75.5 129.3 74.8C129.3 74.1 128.7 73.5 127.9 73.5C127.1 73.5 126.5 74.1 126.5 74.8C126.6 75.6 127.2 76.1 127.9 76.1Z" fill="black"/>
<path fill-rule="evenodd" clip-rule="evenodd" d="M87.5004 77.9C88.4004 77.9 90.0004 79.4 90.4004 81C90.2004 81 90.0004 80.9 89.9004 80.9C88.7004 80.9 88.1004 82 87.2004 83.9C89.3004 82.5 91.2004 81.4 93.4004 81.4C95.3004 81.4 96.8004 82.5 96.8004 84.2C96.8004 84.9 96.4004 85.7 96.0004 86.5C95.7004 84.9 94.4004 84.2 92.1004 84.2C90.8004 84.2 89.2004 84.4 87.9004 84.9C92.0004 85.5 92.6004 86.9 92.6004 88.2C92.6004 90.4 90.3004 91.5 88.8004 92.2C88.9004 91.6 89.1004 90.9 89.1004 90.2C89.1004 88.9 88.6004 87.3 86.5004 85.9C86.2004 87.3 85.0004 88.2 85.0004 89.3C85.0004 89.7 85.3004 89.9 85.5004 89.9C85.5004 90.5 85.2004 92.3 85.2004 92.8C85.2004 93.7 85.4004 93.9 85.9004 94C86.2004 94.8 86.2004 96.2 86.4004 96.9C86.5004 97.3 86.8004 97.4 87.1004 97.4C87.4004 98.1 87.8004 99.2 88.4004 99.6C88.5004 99.7 88.7004 100 88.7004 100.2C88.7004 100.8 87.7004 101.5 87.1004 101.5C86.9004 101.5 86.6004 101.4 86.3004 100.7C86.1004 100.2 84.3004 99.1 84.2004 98.5C84.3004 98.4 84.4004 98.2 84.4004 97.9C84.4004 96.9 82.8004 95.8 82.8004 94.2C83.0004 94.1 83.2004 93.8 83.2004 93.5C83.2004 92.6 82.3004 90.9 82.3004 89.7C82.7004 89.7 82.9004 89.7 82.9004 89.1C83.0004 87.9 83.2004 86.2 84.3004 85.2C84.0004 85.2 83.7004 85.1 83.3004 85.1C81.1004 85.1 77.8004 86.3 76.5004 89.1C76.4004 88.7 76.4004 88.3 76.4004 87.9C76.4004 85.6 77.8004 84.1 78.9004 83.6C79.4004 83.4 80.1004 83.3 80.8004 83.3C82.0004 83.3 83.3004 83.5 84.7004 83.8C83.5004 82.2 81.6004 81.1 80.0004 81.1C79.3004 81.1 78.7004 81.3 78.5004 81.9C78.4004 81.6 78.4004 81.1 78.4004 80.7C78.4004 79 79.0004 78 80.5004 78C82.7004 78 84.7004 80.6 85.8004 83V82.7C85.8004 79.3 85.9004 77.6 87.3004 77.5L87.5004 77.9Z" fill="black"/>
<path fill-rule="evenodd" clip-rule="evenodd" d="M59.7002 83.5999C59.7002 86.2999 60.6002 87.5999 62.1002 87.5999C63.3002 87.5999 64.9002 86.7999 66.8002 85.1999C65.3002 85.4999 64.2002 85.6999 63.2002 85.6999C61.9002 85.6999 60.8002 85.1999 59.7002 83.5999ZM70.1002 79.8999C69.2002 80.0999 67.5002 81.0999 67.5002 82.8999C67.5002 84.1999 68.5002 84.9999 69.8002 84.9999C70.5002 84.9999 71.0002 84.8999 71.3002 84.5999C70.3002 83.5999 69.9002 82.5999 69.9002 81.4999C69.9002 80.7999 70.0002 80.2999 70.1002 79.8999ZM73.2002 76.9999C72.4002 77.8999 71.5002 79.4999 71.5002 81.0999C71.5002 82.9999 72.7002 84.5999 74.6002 84.5999C76.4002 84.5999 77.3002 83.0999 77.3002 81.5999C77.4002 79.1999 75.1002 77.4999 73.2002 76.9999ZM61.0002 80.3999V80.8999C61.0002 82.5999 61.9002 83.4999 63.2002 83.4999C64.1002 83.4999 65.2002 82.9999 66.2002 81.7999C65.8002 81.8999 65.3002 81.8999 64.9002 81.8999C63.4002 81.9999 61.9002 81.5999 61.0002 80.3999ZM68.4002 71.1999C67.2002 71.1999 65.7002 71.2999 64.1002 72.2999C60.9002 74.2999 61.3002 77.4999 60.8002 78.3999C60.7002 78.4999 60.7002 78.5999 60.7002 78.7999C60.7002 79.0999 61.1002 79.4999 61.4002 79.4999C61.7002 79.4999 61.9002 79.3999 62.0002 79.3999C62.9002 79.3999 63.9002 79.9999 65.4002 79.9999C66.3002 79.9999 67.3002 79.6999 68.5002 79.0999C71.2002 77.7999 72.2002 74.5999 72.2002 74.0999C72.2002 73.3999 71.6002 73.4999 71.2002 72.8999C70.7002 72.2999 70.9002 71.6999 70.6002 71.3999C70.4002 71.1999 69.9002 71.1999 69.2002 71.1999H68.4002ZM66.2002 78.2999C65.0002 78.2999 63.6002 76.7999 63.6002 75.4999C63.6002 74.7999 64.2002 73.8999 64.6002 73.8999C64.7002 73.8999 64.8002 73.9999 64.9002 74.2999C65.1002 75.9999 66.3002 76.9999 67.4002 77.4999C67.5002 77.5999 67.6002 77.5999 67.6002 77.6999C67.5002 77.9999 66.8002 78.2999 66.2002 78.2999ZM70.6002 74.9999C70.6002 75.4999 70.3002 76.0999 69.7002 76.0999C68.4002 76.0999 67.4002 74.1999 67.3002 73.0999C67.3002 72.3999 67.7002 72.3999 68.3002 72.3999C68.6002 72.3999 68.7002 72.3999 68.9002 72.4999C69.2002 72.6999 69.2002 73.3999 69.6002 73.8999C69.9002 74.2999 70.6002 74.6999 70.6002 74.9999ZM73.4002 73.3999C73.4002 74.1999 74.1002 74.7999 74.9002 74.7999C75.7002 74.7999 76.4002 74.1999 76.4002 73.3999C76.4002 72.5999 75.7002 71.9999 74.9002 71.9999C74.1002 71.8999 73.4002 72.5999 73.4002 73.3999ZM72.9002 71.5999C73.7002 71.5999 74.4002 70.9999 74.4002 70.1999C74.4002 69.3999 73.7002 68.7999 72.9002 68.7999C72.1002 68.7999 71.4002 69.3999 71.4002 70.1999C71.5002 70.8999 72.1002 71.5999 72.9002 71.5999ZM62.8002 70.8999C64.1002 70.8999 65.2002 70.0999 65.2002 70.0999C63.0002 69.4999 61.8002 67.9999 61.8002 65.8999V65.2999C60.4002 65.8999 59.8002 66.9999 59.8002 68.0999C59.9002 69.7999 61.2002 70.8999 62.8002 70.8999ZM69.3002 69.2999C69.5002 68.6999 69.6002 67.9999 69.6002 67.1999C69.6002 65.4999 68.8002 62.8999 66.2002 62.8999C64.7002 62.8999 63.7002 63.9999 63.7002 65.2999C63.8002 68.1999 66.8002 69.2999 69.3002 69.2999Z" fill="black"/>
<path fill-rule="evenodd" clip-rule="evenodd" d="M151.5 68.4C149.9 71.6 145.9 72.3 144.6 72.1C145 75.4 149.9 79.8 151.2 79.7C152.1 79.6 152.4 75.4 152.4 72.1C152.4 70.2 152.5 68.7 151.5 68.4ZM151.6 65.3C151.6 64.1 151.1 63.2 149.7 63C149.9 63.3 150 63.6 150 64.1C150 66 147.2 68.1 144.1 68.1C143 68.1 142.6 68.9 142.7 69.3C142.7 70.3 143.6 70.7 144.9 70.7C148.4 70.6 151.6 67.8 151.6 65.3Z" fill="black"/>
<path fill-rule="evenodd" clip-rule="evenodd" d="M144.1 66.8C145.5 66.8 148.5 65.6 148.5 64C148.5 63.5 148.3 63 147.5 63C146.4 63 144.9 64.1 143.4 64.1C142.9 64.1 142.3 64.1 141.7 63.9C142.3 64.3 142.2 65.3 142.5 66C143 66.8 143.6 66.8 144.1 66.8Z" fill="black"/>
<path fill-rule="evenodd" clip-rule="evenodd" d="M125.3 67.6001C125.3 70.8001 123.1 72.1001 121.1 72.1001C120.6 72.1001 120.2 72.0001 119.8 71.8001C120.2 71.4001 120.6 70.8001 120.6 70.4001C120.6 70.1001 120.4 70.0001 120.1 70.0001C119.9 70.0001 119.4 70.1001 119 70.1001C118 70.1001 117.2 69.7001 116.3 68.8001C115.7 69.7001 115.4 70.9001 115.4 72.1001C115.4 74.0001 116.1 75.9001 116.9 76.0001C117.3 76.0001 117.3 74.7001 118 74.7001C118.2 74.7001 119 75.3001 120.7 75.3001C123.2 75.3001 126 73.8001 126 69.9001C125.9 69.4001 125.7 68.2001 125.3 67.6001Z" fill="black"/>
<path fill-rule="evenodd" clip-rule="evenodd" d="M119.6 65.6C120.1 65.6 121.1 65.8 121.4 66.3C121 66.5 120.6 67 120.6 67.4C120.6 67.6 120.7 67.8 120.9 67.9C121.8 68.3 122.3 69 122.6 69.6C124.2 68.7 124.8 66.2 124.8 64.8C124.8 64.4 124.8 63.8 124.4 63.8C124.1 63.8 123.8 64.2 123.4 64.2C123.1 64.2 122.2 63 120 63C117.5 63 116.4 64.9 116.4 66.5C116.4 66.9 116.5 67.4 116.6 67.7C117.1 66.7 118.1 65.6 119.6 65.6Z" fill="black"/>
<path fill-rule="evenodd" clip-rule="evenodd" d="M94.2998 67.6998C92.4998 67.6998 90.8998 69.1998 89.6998 71.1998C89.7998 70.7998 89.7998 70.3998 89.7998 69.9998C89.7998 67.1998 88.2998 64.7998 85.5998 64.7998C83.3998 64.7998 81.2998 66.0998 80.4998 68.6998C80.6998 68.4998 81.4998 67.9998 82.0998 67.9998C82.7998 67.9998 82.9998 68.5998 82.9998 69.5998C82.9998 70.1998 82.8998 70.9998 82.5998 71.6998C82.1998 72.8998 81.3998 73.1998 80.9998 73.1998C79.2998 73.1998 80.0998 70.2998 79.1998 70.2998C78.4998 70.2998 78.2998 71.8998 78.2998 72.4998C78.2998 74.4998 79.5998 76.5998 82.4998 76.5998C85.5998 76.5998 87.2998 75.0998 89.0998 73.1998C89.4998 75.2998 90.5998 78.9998 93.6998 78.9998C95.3998 78.9998 96.5998 77.5998 96.6998 75.8998C96.4998 76.0998 96.1998 76.2998 95.7998 76.2998C95.1998 76.2998 94.9998 75.3998 94.9998 74.5998C94.9998 73.2998 95.3998 71.8998 95.9998 71.8998C96.2998 71.8998 96.4998 72.0998 96.5998 73.0998C96.6998 73.7998 96.5998 74.6998 97.0998 74.6998C97.5998 74.6998 97.7998 73.1998 97.7998 72.2998C97.6998 69.6998 96.5998 67.5998 94.2998 67.6998ZM83.9998 74.4998C83.6998 74.4998 83.5998 74.1998 83.5998 73.9998C83.5998 72.5998 85.0998 66.3998 86.1998 66.3998C86.3998 66.3998 86.4998 66.5998 86.4998 66.8998C86.4998 67.9998 85.1998 74.4998 83.9998 74.4998ZM88.5998 71.7998C87.6998 72.7998 87.1998 73.2998 86.7998 73.2998C86.5998 73.2998 86.3998 72.8998 86.3998 72.4998C86.3998 71.7998 86.8998 68.8998 87.9998 68.8998C88.3998 68.8998 88.6998 69.6998 88.6998 70.3998C88.6998 70.9998 88.6998 71.3998 88.5998 71.7998ZM90.6998 74.2998C90.3998 74.2998 90.0998 73.6998 90.0998 72.4998C90.6998 71.4998 90.9998 71.0998 91.3998 71.0998C91.4998 71.0998 91.6998 71.1998 91.6998 71.7998C91.5998 73.0998 91.0998 74.2998 90.6998 74.2998ZM92.4998 76.3998C92.2998 76.3998 92.0998 76.0998 92.0998 75.2998C92.0998 73.3998 93.2998 69.8998 93.9998 69.8998C94.1998 69.8998 94.2998 70.3998 94.2998 70.8998C94.3998 72.9998 93.3998 76.3998 92.4998 76.3998Z" fill="black"/>
<path fill-rule="evenodd" clip-rule="evenodd" d="M138.4 63.5999C137.7 63.5999 136.6 64.3999 135.8 64.3999C134.7 64.3999 135 62.8999 133.8 62.8999C133.5 62.8999 133.2 62.9999 132.9 63.1999C130.4 64.4999 128.4 63.9999 128 64.2999C127.9 64.3999 127.8 64.3999 127.8 64.6999C127.8 67.4999 130.6 71.6999 135.2 71.6999C138.4 71.6999 141 70.5999 141 68.6999C140.9 67.0999 139.4 63.5999 138.4 63.5999ZM135.5 68.9999C132.9 68.9999 131.3 67.4999 131.3 66.5999C131.3 66.4999 131.4 66.3999 131.5 66.3999C131.9 66.3999 133 66.9999 134.5 67.1999C136.2 67.4999 137.1 67.4999 137.6 67.4999C138.1 67.4999 138.3 67.5999 138.3 67.7999C138.2 68.2999 137 68.9999 135.5 68.9999Z" fill="black"/>
<path fill-rule="evenodd" clip-rule="evenodd" d="M152.4 46.7998C150.6 46.7998 150.4 46.2998 149.2 46.2998C147.8 46.2998 146.8 47.2998 146.8 48.7998C146.8 49.2998 147 50.0998 147 51.0998C147 52.2998 146.8 53.4998 145.7 53.4998C144.7 53.4998 144.3 52.7998 144.3 51.9998C144.3 50.5998 145 49.5998 145 48.6998C145 46.9998 143 46.4998 140.8 46.4998C138.2 46.4998 135.4 47.1998 135.4 47.5998C135.4 48.1998 139.1 47.7998 141.8 51.2998C140.1 51.2998 136.8 52.0998 136.8 52.5998C136.8 53.1998 142.8 53.7998 142.8 56.2998C142.8 57.8998 141.5 58.0998 141 58.0998C139 58.0998 138 55.9998 137.5 55.9998C137.4 55.9998 137.2 56.0998 137.2 56.2998C137.2 56.5998 137.5 57.4998 137.5 58.3998C137.5 60.6998 135 60.8998 135 61.3998C135 61.5998 135.1 61.5998 135.4 61.6998C137.2 61.9998 139.1 62.0998 140.8 62.0998C147.2 62.0998 152.3 60.0998 152.3 54.4998C152.3 51.3998 151.3 50.3998 151.3 48.8998C151.1 48.3998 151.5 47.2998 152.4 46.7998ZM143.5 58.9998H142.2C146.3 58.2998 148.6 55.8998 148.6 52.6998C149.5 52.9998 150.1 53.8998 150.1 54.8998C150 56.7998 148.3 58.9998 143.5 58.9998ZM149.2 49.2998C148.7 49.2998 148.3 48.8998 148.3 48.3998C148.3 47.8998 148.7 47.4998 149.2 47.4998C149.7 47.4998 150.1 47.8998 150.1 48.3998C150.1 48.8998 149.7 49.2998 149.2 49.2998Z" fill="black"/>
<path fill-rule="evenodd" clip-rule="evenodd" d="M127.5 45.5999C125.1 45.5999 123.3 46.7999 122.3 46.7999C121.7 46.7999 120.9 45.3999 120.4 45.3999C120.2 45.3999 120 45.7999 120 46.3999V46.5999C120 47.0999 119.9 47.9999 119.6 47.9999C118.7 47.9999 115.3 45.5999 115.3 46.3999C115.3 47.1999 117.6 49.6999 117.6 50.2999C117.6 50.8999 115.4 51.4999 115.4 51.9999C115.4 52.7999 117.8 52.8999 117.8 53.8999C117.8 54.8999 115.3 55.6999 115.3 56.3999C115.3 56.9999 117.8 56.5999 117.8 57.2999C117.8 57.9999 116 60.4999 116 61.1999C116 61.3999 116 61.3999 116.2 61.3999C116.9 61.3999 119 59.0999 119.5 59.0999C120.1 59.0999 120.2 60.4999 120.3 61.2999C120.4 61.6999 120.4 61.7999 120.6 61.7999C121 61.7999 121.7 60.1999 122.2 60.1999C122.9 60.1999 124.7 62.0999 127.8 62.0999C132.2 62.0999 136.3 59.0999 136.3 53.7999C136.4 48.5999 132.6 45.5999 127.5 45.5999ZM121.4 56.9999C121.3 56.9999 121.2 56.8999 121.2 56.6999L121.1 55.2999C121.1 55.1999 121 54.9999 120.8 54.9999H119.3C119.1 54.9999 119 54.9999 119 54.8999C119 54.5999 120.5 53.5999 120.5 53.3999C120.5 52.9999 119.1 52.2999 119.1 51.7999C119.1 51.6999 119.2 51.6999 119.3 51.6999C119.7 51.6999 120.4 51.7999 120.9 51.7999C121.4 51.7999 121.4 49.7999 121.8 49.7999C122.1 49.7999 122.5 51.6999 122.9 51.6999C123.4 51.6999 124.2 51.1999 124.6 51.1999C124.7 51.1999 124.7 51.1999 124.7 51.2999C124.7 51.4999 123.8 52.4999 123.8 52.7999C123.8 53.0999 125.8 53.4999 125.8 53.7999C125.8 54.1999 123.7 54.0999 123.7 54.3999C123.7 54.5999 124.5 55.5999 124.5 55.9999C124.5 56.0999 124.5 56.0999 124.4 56.0999C124.1 56.0999 123 55.5999 122.7 55.5999C122.3 55.5999 121.7 56.9999 121.4 56.9999ZM127.6 60.0999C125.1 60.0999 123.4 58.8999 123.4 58.1999C123.4 57.8999 123.6 57.6999 123.9 57.6999C124.7 57.6999 126.4 58.8999 127 58.8999C127.1 58.8999 127.3 58.7999 127.3 58.5999C127.3 57.9999 126.7 56.8999 126.7 56.3999C126.7 56.2999 126.8 56.1999 127 56.1999C128 56.1999 129.4 56.5999 130.2 56.5999C130.5 56.5999 130.5 56.4999 130.5 56.2999C130.5 55.4999 128.1 53.9999 128.1 53.4999C128.1 53.0999 131 52.3999 131 51.7999C131 51.0999 127 51.5999 127 50.8999C127 50.3999 127.8 49.5999 127.8 49.1999C127.8 48.9999 127.7 48.9999 127.4 48.9999C127.1 48.9999 125.3 49.6999 124.6 49.6999C124.2 49.6999 123.8 49.5999 123.8 49.0999C123.8 48.2999 125.2 47.3999 127.4 47.3999C131 47.3999 133.1 49.7999 133.1 53.7999C133.2 58.7999 129.6 60.0999 127.6 60.0999Z" fill="black"/>
<path fill-rule="evenodd" clip-rule="evenodd" d="M89.5996 55.7999C90.9996 55.7999 95.1996 57.6999 97.0996 57.6999C97.7996 57.6999 98.1996 57.2999 98.1996 56.8999C98.1996 54.6999 92.2996 50.7999 92.1996 49.1999C92.1996 48.9999 92.2996 48.8999 92.3996 48.7999C93.3996 47.6999 97.5996 46.9999 97.5996 46.0999C97.5996 45.5999 96.6996 45.5999 96.2996 45.5999C92.8996 45.5999 87.9996 46.7999 87.9996 47.9999C87.9996 49.1999 92.3996 52.1999 92.3996 53.6999C92.3996 54.0999 92.0996 54.1999 91.6996 54.1999C90.4996 54.1999 87.7996 52.6999 86.4996 52.6999C85.8996 52.6999 85.6996 53.0999 85.6996 53.6999C85.6996 55.3999 87.7996 58.6999 87.7996 59.6999C87.7996 59.7999 87.7996 59.9999 87.5996 59.9999C86.8996 59.9999 83.8996 56.3999 82.7996 56.3999C82.3996 56.3999 82.3996 56.8999 82.3996 57.6999V58.8999C82.3996 59.6999 82.3996 60.1999 81.9996 60.1999C81.0996 60.1999 80.5996 57.5999 79.6996 57.5999C78.7996 57.5999 78.5996 62.2999 77.6996 62.2999C76.5996 62.2999 77.4996 57.1999 76.4996 57.1999C75.3996 57.1999 74.0996 60.5999 73.2996 60.5999C72.9996 60.5999 72.8996 60.2999 72.8996 60.0999C72.8996 59.0999 73.4996 57.3999 73.4996 56.3999C73.4996 55.8999 73.3996 55.5999 72.8996 55.5999C71.7996 55.5999 69.2996 57.3999 68.3996 57.3999C68.2996 57.3999 68.0996 57.2999 68.0996 57.1999C68.0996 56.2999 72.0996 53.5999 72.0996 52.3999C72.0996 51.1999 66.5996 51.9999 66.5996 50.5999C66.5996 49.4999 70.4996 48.2999 70.4996 47.0999C70.4996 46.0999 65.8996 45.5999 64.0996 45.5999C61.9996 45.5999 60.7996 45.8999 60.7996 46.4999C60.7996 47.3999 65.6996 47.6999 65.6996 48.4999C65.6996 49.2999 60.5996 51.3999 60.5996 52.5999C60.5996 53.6999 67.6996 52.6999 67.6996 53.7999C67.6996 54.9999 61.4996 60.2999 61.4996 62.0999C61.4996 62.4999 61.7996 62.6999 62.1996 62.6999C64.0996 62.6999 68.9996 59.0999 70.2996 59.0999C70.7996 59.0999 70.7996 59.6999 70.7996 60.1999C70.7996 61.0999 70.4996 62.5999 70.4996 63.5999C70.4996 64.3999 70.6996 64.9999 71.3996 64.9999C72.6996 64.9999 73.9996 62.6999 74.8996 62.6999C76.0996 62.6999 75.3996 69.2999 77.0996 69.2999C78.5996 69.2999 79.1996 62.0999 80.0996 62.0999C80.9996 62.0999 81.7996 64.1999 82.6996 64.1999C83.7996 64.1999 83.2996 60.5999 84.3996 60.5999C85.6996 60.5999 89.2996 64.8999 90.9996 64.8999C91.4996 64.8999 91.6996 64.4999 91.6996 63.9999C91.6996 62.0999 88.9996 57.7999 88.9996 56.3999C89.0996 55.8999 89.1996 55.7999 89.5996 55.7999Z" fill="black"/>
<path fill-rule="evenodd" clip-rule="evenodd" d="M91.8998 58.2999C91.7998 58.2999 91.6998 58.4 91.6998 58.5C91.6998 59.8 96.2998 65.9 97.0998 65.9C97.7998 65.9 98.3998 64.5999 98.3998 63.5999C98.3998 63.2999 98.2998 63 98.1998 62.7999C97.4998 61.7999 92.8998 58.2999 91.8998 58.2999ZM64.9998 54.7999C64.9998 54.4999 64.3998 54.4 63.8998 54.4C63.0998 54.4 61.9998 54.6 61.4998 55C61.0998 55.3 60.7998 56.3 60.7998 57C60.7998 57.4 60.8998 57.7999 61.2998 57.7999C62.1998 57.9 64.9998 55.4999 64.9998 54.7999ZM71.4998 50.2999C72.2998 50.2999 73.5998 49.9 74.4998 49.9C74.9998 49.9 75.4998 50 75.4998 50.5C75.4998 51.4 73.4998 53 73.4998 53.7C73.4998 53.9 73.6998 54 73.8998 54C74.5998 54 75.8998 52.2 76.9998 52.2C78.8998 52.2 77.6998 56.2999 78.6998 56.2999C79.7998 56.2999 79.2998 52.2999 80.8998 52.2999C82.1998 52.2999 83.0998 55.0999 83.9998 55.0999C84.1998 55.0999 84.3998 54.9 84.3998 54.7C84.3998 53.9 83.2998 52.4 83.2998 51.4C83.2998 50.8 83.6998 50.5 84.2998 50.5C85.0998 50.5 86.2998 51 86.8998 51C87.0998 51 87.2998 50.9 87.2998 50.7C87.2998 49.8 84.0998 48.8999 84.0998 47.7999C84.0998 46.6999 85.8998 46.7 85.8998 46.2C85.8998 46 84.7998 45.7999 83.2998 45.7999C80.8998 45.7999 81.2998 47.7 79.3998 47.7C77.4998 47.7 77.9998 45.7 75.5998 45.7C74.0998 45.7 72.7998 45.9999 72.7998 46.2999C72.7998 46.6999 74.4998 46.5 74.4998 47.7C74.4998 49 70.7998 49.2999 70.7998 50.0999C70.7998 50.1999 71.0998 50.2999 71.4998 50.2999ZM94.3998 49.7999C94.3998 50.3999 96.6998 51.7999 97.6998 51.7999C98.2998 51.7999 98.4998 50.9999 98.4998 50.0999C98.4998 48.9999 97.9998 49 97.0998 49C95.8998 49 94.3998 49.2999 94.3998 49.7999Z" fill="black"/>
</svg>
